<?xml version="1.0" encoding="UTF-8" standalone="no"?>
<svg
   version="1.0"
   width="1024pt"
   height="1024pt"
   viewBox="0 0 1024 1024"
   preserveAspectRatio="xMidYMid"
   id="svg107"
   xmlns="http://www.w3.org/2000/svg"
   xmlns:svg="http://www.w3.org/2000/svg">
  <defs
     id="defs107" />
  <g
     transform="matrix(0.1,0,0,-0.1,0,1024)"
     fill="#000000"
     stroke="none"
     id="g107"
     style="fill:#ffffff;fill-opacity:1">
    <path
       d="m 4640,8925 c -300,-37 -699,-140 -990,-257 -152,-60 -350,-158 -357,-175 -5,-14 65,-153 81,-159 6,-2 79,27 161,65 368,169 756,279 1135,322 102,11 195,23 208,25 22,4 23,8 20,97 l -3,92 -75,2 c -41,0 -122,-5 -180,-12 z"
       id="path1"
       style="fill:#ffffff;fill-opacity:1" />
    <path
       d="m 5428,8928 c -2,-7 -3,-49 -2,-93 2,-96 -17,-85 214,-115 402,-51 766,-157 1120,-327 521,-249 927,-567 1281,-1005 420,-518 663,-1070 754,-1718 9,-63 20,-137 23,-165 l 7,-50 h 95 95 l 3,40 c 9,105 -41,419 -104,648 -114,416 -270,755 -508,1107 -310,456 -755,877 -1218,1152 -148,87 -420,219 -603,291 -287,113 -617,195 -930,232 -160,18 -221,19 -227,3 z"
       id="path2"
       style="fill:#ffffff;fill-opacity:1" />
    <path
       d="m 5106,8894 c -23,-22 -20,-80 4,-104 45,-45 120,-14 120,50 0,44 -26,70 -70,70 -22,0 -45,-7 -54,-16 z"
       id="path3"
       style="fill:#ffffff;fill-opacity:1" />
    <path
       d="m 5232,8434 c -43,-43 -105,-109 -139,-146 -34,-38 -66,-68 -71,-68 -5,0 -13,63 -17,140 l -7,141 -65,-3 -66,-3 2,-324 c 1,-179 4,-329 7,-333 3,-4 34,-8 70,-8 h 64 v 88 87 l 50,43 c 28,24 57,42 64,39 8,-3 35,-34 62,-69 26,-35 72,-91 102,-125 l 54,-63 h 89 c 49,0 89,3 89,8 0,7 -19,29 -181,219 -41,48 -85,103 -98,121 l -23,33 145,145 c 139,138 144,144 114,144 -18,0 -63,3 -100,7 l -68,6 z"
       id="path4"
       style="fill:#ffffff;fill-opacity:1" />
    <path
       d="m 4422,8439 c -109,-23 -345,-83 -384,-98 -15,-6 -26,-16 -23,-23 2,-7 36,-146 75,-308 40,-162 75,-298 79,-302 4,-4 45,2 91,13 134,32 363,79 388,79 26,0 27,11 11,94 -9,44 -15,55 -28,51 -26,-8 -325,-65 -342,-65 -11,0 -19,12 -23,38 -4,20 -9,44 -12,53 -4,13 19,21 128,44 73,16 135,30 137,31 2,2 -2,33 -9,69 -12,63 -14,66 -37,60 -63,-16 -218,-45 -237,-45 -19,0 -25,9 -34,51 -7,29 -11,53 -9,55 3,3 236,56 317,71 l 45,9 -3,48 c -3,52 -17,97 -29,95 -5,0 -50,-10 -101,-20 z"
       id="path5"
       style="fill:#ffffff;fill-opacity:1" />
    <path
       d="m 5903,8401 c -143,-49 -231,-168 -232,-313 -2,-134 71,-248 196,-310 88,-43 200,-51 285,-18 71,26 150,97 186,164 24,45 27,62 27,141 -1,77 -5,98 -28,147 -29,58 -104,135 -161,165 -85,44 -190,53 -273,24 z m 185,-146 c 76,-32 126,-107 126,-190 0,-63 -25,-109 -83,-150 -111,-78 -286,1 -306,139 -22,143 128,257 263,201 z"
       id="path6"
       style="fill:#ffffff;fill-opacity:1" />
    <path
       d="m 2956,8304 c -72,-48 -97,-70 -93,-83 6,-24 90,-140 101,-141 16,0 206,132 206,144 0,18 -91,146 -104,146 -6,0 -55,-30 -110,-66 z"
       id="path7"
       style="fill:#ffffff;fill-opacity:1" />
    <path
       d="m 6586,8168 c -3,-24 -7,-180 -8,-348 l -3,-305 71,-37 71,-38 234,226 c 129,124 235,229 237,234 2,5 -22,26 -53,45 l -56,36 -32,-24 c -18,-13 -94,-83 -169,-156 -75,-72 -142,-131 -148,-131 -8,0 -10,66 -4,243 l 7,243 -64,27 c -35,15 -67,27 -71,27 -4,0 -9,-19 -12,-42 z"
       id="path8"
       style="fill:#ffffff;fill-opacity:1" />
    <path
       d="M 2539,7987 C 2134,7617 1797,7158 1579,6680 1425,6340 1314,5914 1284,5548 l -7,-88 44,-1 c 24,-1 69,-2 100,-4 l 56,-2 16,136 c 68,552 257,1070 550,1506 188,280 477,611 700,802 l 49,42 -46,63 c -80,113 -64,114 -207,-15 z"
       id="path9"
       style="fill:#ffffff;fill-opacity:1" />
    <path
       d="m 3290,8013 c -30,-19 -54,-37 -53,-41 2,-11 298,-537 309,-550 1,-2 69,28 151,66 81,39 177,82 213,97 36,15 68,30 72,33 9,9 -48,132 -61,132 -5,0 -76,-31 -157,-69 -95,-45 -153,-66 -159,-60 -5,5 -62,103 -126,216 -64,114 -121,208 -125,209 -5,1 -34,-14 -64,-33 z"
       id="path10"
       style="fill:#ffffff;fill-opacity:1" />
    <path
       d="m 2986,7628 c -35,-50 -8,-108 51,-108 38,0 63,27 63,68 0,57 -82,86 -114,40 z"
       id="path11"
       style="fill:#ffffff;fill-opacity:1" />
    <path
       d="m 7231,7624 c -25,-32 -26,-52 -5,-82 22,-32 79,-27 107,9 50,68 -50,139 -102,73 z"
       id="path12"
       style="fill:#ffffff;fill-opacity:1" />
    <path
       d="m 4740,7601 c -596,-91 -1170,-406 -1554,-855 -183,-214 -294,-382 -395,-598 -93,-198 -184,-502 -193,-643 l -3,-50 101,-3 101,-3 18,93 c 58,300 163,551 348,828 93,140 171,232 316,373 340,330 751,547 1202,636 85,17 168,32 184,33 l 30,3 v 100 c 0,118 13,111 -155,86 z"
       id="path13"
       style="fill:#ffffff;fill-opacity:1" />
    <path
       d="m 5420,7521 c 0,-59 4,-92 13,-98 6,-5 74,-21 150,-36 296,-58 594,-177 847,-339 352,-226 581,-454 775,-774 147,-241 238,-474 309,-796 l 6,-28 h 100 100 v 43 c -1,90 -72,351 -152,552 -150,380 -458,773 -812,1038 -212,159 -341,234 -576,337 -227,100 -565,190 -712,190 h -48 z"
       id="path14"
       style="fill:#ffffff;fill-opacity:1" />
    <path
       d="m 5109,7572 c -51,-42 -15,-122 56,-122 63,0 91,74 45,120 -25,25 -71,26 -101,2 z"
       id="path15"
       style="fill:#ffffff;fill-opacity:1" />
    <path
       d="m 2782,7464 c -15,-10 -22,-25 -22,-48 0,-42 17,-64 55,-72 43,-8 76,20 77,65 2,59 -60,90 -110,55 z"
       id="path16"
       style="fill:#ffffff;fill-opacity:1" />
    <path
       d="m 7451,7467 c -36,-18 -47,-41 -35,-74 13,-37 56,-58 86,-42 31,16 38,28 38,65 0,48 -45,74 -89,51 z"
       id="path17"
       style="fill:#ffffff;fill-opacity:1" />
    <path
       d="m 5054,7261 c -78,-36 -123,-109 -125,-202 -3,-134 90,-229 226,-229 138,0 233,99 223,231 -9,129 -91,211 -217,217 -49,2 -77,-2 -107,-17 z m 164,-101 c 34,-21 62,-72 62,-112 0,-64 -80,-126 -143,-112 -94,20 -135,110 -84,185 41,61 105,76 165,39 z"
       id="path18"
       style="fill:#ffffff;fill-opacity:1" />
    <path
       d="m 2530,7259 c -14,-5 -36,-20 -48,-32 -84,-78 -65,-193 40,-245 58,-29 113,-23 159,15 83,70 78,179 -12,246 -31,23 -103,31 -139,16 z"
       id="path19"
       style="fill:#ffffff;fill-opacity:1" />
    <path
       d="m 7664,7256 c -42,-19 -85,-77 -91,-123 -6,-49 31,-120 75,-146 45,-26 123,-24 169,4 44,27 78,97 69,143 -20,103 -128,163 -222,122 z"
       id="path20"
       style="fill:#ffffff;fill-opacity:1" />
    <path
       d="m 4495,7151 c -84,-39 -135,-120 -135,-213 1,-90 48,-171 122,-209 45,-23 152,-26 201,-6 120,51 170,190 113,313 -52,112 -193,165 -301,115 z m 174,-117 c 44,-37 58,-94 34,-142 -22,-44 -75,-82 -115,-82 -64,0 -128,62 -128,123 0,105 130,168 209,101 z"
       id="path21"
       style="fill:#ffffff;fill-opacity:1" />
    <path
       d="m 5612,7144 c -117,-58 -163,-208 -97,-319 48,-82 108,-115 207,-115 123,1 216,85 226,204 5,68 -9,112 -55,166 -74,87 -185,112 -281,64 z m 195,-128 c 27,-29 33,-44 33,-80 0,-97 -105,-157 -187,-106 -74,45 -83,139 -17,199 33,31 40,33 87,28 42,-4 56,-10 84,-41 z"
       id="path22"
       style="fill:#ffffff;fill-opacity:1" />
    <path
       d="m 4085,6962 c -53,-40 -65,-63 -44,-88 9,-11 22,-14 47,-9 l 35,6 -5,-208 c -3,-114 -2,-219 1,-233 8,-28 43,-39 67,-20 11,10 14,59 14,282 0,166 -4,277 -10,289 -16,29 -50,23 -105,-19 z"
       id="path23"
       style="fill:#ffffff;fill-opacity:1" />
    <path
       d="m 6122,6960 c -60,-47 -65,-54 -57,-81 6,-18 13,-21 46,-16 l 39,5 v -222 c 0,-159 3,-225 12,-234 19,-19 46,-14 64,14 15,23 16,51 10,286 -4,165 -11,267 -18,275 -18,22 -44,15 -96,-27 z"
       id="path24"
       style="fill:#ffffff;fill-opacity:1" />
    <path
       d="m 7927,6833 c -9,-2 -24,-17 -32,-33 -37,-72 52,-132 109,-74 25,24 20,69 -10,93 -27,21 -34,23 -67,14 z"
       id="path25"
       style="fill:#ffffff;fill-opacity:1" />
    <path
       d="m 2300,6810 c -27,-27 -25,-56 5,-85 45,-46 115,-19 115,44 0,55 -79,82 -120,41 z"
       id="path26"
       style="fill:#ffffff;fill-opacity:1" />
    <path
       d="m 3780,6783 c -52,-19 -63,-63 -29,-107 28,-36 83,-33 112,6 28,37 17,75 -28,94 -19,8 -36,14 -37,13 -2,0 -10,-3 -18,-6 z"
       id="path27"
       style="fill:#ffffff;fill-opacity:1" />
    <path
       d="m 6461,6777 c -63,-31 -41,-119 31,-125 29,-2 40,2 57,24 27,35 27,59 -4,89 -27,28 -48,31 -84,12 z"
       id="path28"
       style="fill:#ffffff;fill-opacity:1" />
    <path
       d="m 2075,6590 c -56,-23 -97,-105 -85,-172 20,-106 131,-158 231,-108 106,55 106,195 0,267 -35,24 -105,30 -146,13 z"
       id="path29"
       style="fill:#ffffff;fill-opacity:1" />
    <path
       d="m 5030,6533 c -225,-139 -480,-247 -735,-312 -123,-31 -304,-68 -367,-76 l -58,-7 v -384 -384 l 28,-25 c 43,-38 186,-145 194,-145 4,0 9,172 10,383 l 3,382 30,3 c 74,7 296,57 394,88 154,48 282,103 468,200 l 163,85 124,-71 c 286,-163 466,-226 904,-316 l 24,-5 -5,-442 c -5,-483 -8,-517 -68,-704 -142,-444 -428,-776 -887,-1030 l -95,-52 -87,44 c -217,109 -469,308 -611,481 -151,185 -292,466 -333,665 -8,41 -19,75 -23,76 -4,2 -50,32 -100,68 -117,81 -133,90 -133,73 0,-48 25,-199 47,-283 127,-489 455,-924 889,-1181 122,-72 310,-165 346,-170 27,-4 57,8 162,66 340,187 552,360 748,614 210,272 329,579 368,951 7,71 10,270 8,560 l -3,450 -55,8 c -249,36 -588,131 -785,220 -99,45 -284,145 -379,206 -28,17 -57,31 -65,30 -9,0 -63,-30 -121,-66 z"
       id="path30"
       style="fill:#ffffff;fill-opacity:1" />
    <path
       d="m 8089,6577 c -45,-30 -79,-83 -79,-121 0,-90 94,-176 178,-161 81,13 142,76 142,145 0,53 -39,122 -80,142 -50,25 -119,23 -161,-5 z"
       id="path31"
       style="fill:#ffffff;fill-opacity:1" />
    <path
       d="m 3485,6564 c -107,-55 -162,-190 -119,-292 52,-124 201,-174 323,-107 157,86 155,301 -4,387 -59,32 -151,38 -200,12 z m 140,-98 c 39,-17 75,-68 75,-107 0,-32 -37,-89 -70,-107 -15,-7 -44,-11 -70,-8 -92,9 -134,114 -73,186 42,50 80,60 138,36 z"
       id="path32"
       style="fill:#ffffff;fill-opacity:1" />
    <path
       d="m 6644,6561 c -108,-49 -155,-191 -99,-301 60,-118 202,-157 325,-89 56,31 100,109 100,178 0,55 -35,134 -76,173 -63,58 -170,75 -250,39 z m 172,-107 c 28,-19 54,-69 54,-105 0,-56 -64,-109 -132,-109 -84,0 -135,100 -92,181 29,57 109,72 170,33 z"
       id="path33"
       style="fill:#ffffff;fill-opacity:1" />
    <path
       d="m 2062,6108 c -19,-19 -16,-222 4,-242 18,-19 20,-19 45,-6 17,10 19,22 19,123 0,115 -6,137 -40,137 -9,0 -21,-5 -28,-12 z"
       id="path34"
       style="fill:#ffffff;fill-opacity:1" />
    <path
       d="m 8200,6101 c -5,-11 -10,-64 -10,-119 0,-87 2,-101 21,-118 15,-14 24,-16 37,-8 14,9 17,31 20,124 3,117 -4,140 -39,140 -10,0 -23,-9 -29,-19 z"
       id="path35"
       style="fill:#ffffff;fill-opacity:1" />
    <path
       d="m 5035,6009 c -66,-39 -195,-112 -287,-161 l -168,-91 -2,-331 c -1,-182 -1,-347 0,-368 2,-31 13,-47 78,-110 86,-83 128,-113 145,-102 9,5 10,95 5,373 -5,292 -4,369 6,383 13,18 325,208 340,208 13,0 346,-198 353,-210 4,-7 15,-527 15,-707 0,-7 4,-13 8,-13 12,0 204,156 214,174 5,8 7,169 6,358 l -3,343 -55,29 c -179,92 -385,206 -453,248 -43,26 -79,48 -80,48 -1,0 -56,-32 -122,-71 z"
       id="path36"
       style="fill:#ffffff;fill-opacity:1" />
    <path
       d="m 3124,5972 c -21,-16 -45,-36 -52,-45 -29,-35 10,-83 48,-59 20,12 20,10 20,-156 0,-151 2,-171 18,-185 25,-23 39,-21 58,8 23,35 18,440 -6,455 -25,16 -45,11 -86,-18 z"
       id="path37"
       style="fill:#ffffff;fill-opacity:1" />
    <path
       d="m 3523,5983 c -15,-8 -43,-26 -61,-40 -28,-21 -32,-30 -27,-52 9,-34 24,-43 49,-25 11,8 24,14 28,14 5,0 8,-76 8,-169 0,-141 3,-172 16,-185 19,-19 38,-20 52,-3 12,14 20,436 9,453 -12,19 -44,22 -74,7 z"
       id="path38"
       style="fill:#ffffff;fill-opacity:1" />
    <path
       d="m 6713,5959 c -56,-42 -59,-49 -43,-80 11,-20 60,-27 60,-9 0,6 5,10 10,10 6,0 10,-60 10,-161 0,-91 4,-169 10,-180 12,-21 50,-25 68,-7 9,9 12,72 12,223 0,193 -2,213 -18,228 -28,26 -52,20 -109,-24 z"
       id="path39"
       style="fill:#ffffff;fill-opacity:1" />
    <path
       d="m 7090,5964 c -32,-26 -45,-43 -45,-61 0,-34 28,-52 55,-35 20,12 20,10 20,-145 0,-87 3,-168 6,-180 8,-31 41,-39 66,-16 19,17 20,27 16,231 -3,198 -4,215 -22,228 -30,21 -47,17 -96,-22 z"
       id="path40"
       style="fill:#ffffff;fill-opacity:1" />
    <path
       d="m 4273,5715 c -63,-42 -66,-47 -53,-79 10,-27 37,-34 68,-17 16,8 17,-5 17,-166 0,-161 1,-176 19,-189 25,-18 31,-18 51,2 14,15 16,44 13,241 -2,186 -6,225 -18,233 -25,16 -43,11 -97,-25 z"
       id="path41"
       style="fill:#ffffff;fill-opacity:1" />
    <path
       d="m 5929,5718 c -23,-18 -47,-41 -53,-50 -16,-27 5,-53 41,-52 l 30,2 6,-112 c 4,-61 7,-139 7,-172 0,-73 15,-94 55,-76 l 25,12 v 229 c 0,217 -1,231 -19,241 -31,16 -47,12 -92,-22 z"
       id="path42"
       style="fill:#ffffff;fill-opacity:1" />
    <path
       d="m 8177,5705 c -51,-17 -76,-41 -99,-94 -45,-100 31,-211 145,-211 80,0 141,46 157,117 28,120 -88,228 -203,188 z"
       id="path43"
       style="fill:#ffffff;fill-opacity:1" />
    <path
       d="m 2000,5674 c -73,-66 -77,-156 -11,-227 34,-36 44,-41 94,-45 47,-4 63,0 100,21 140,82 76,287 -89,287 -48,0 -58,-4 -94,-36 z"
       id="path44"
       style="fill:#ffffff;fill-opacity:1" />
    <path
       d="m 5098,5478 c -21,-5 -57,-27 -82,-49 -86,-76 -95,-183 -25,-287 l 30,-45 -37,-194 c -44,-226 -52,-199 85,-282 l 84,-51 58,32 c 31,17 78,47 103,65 56,41 57,44 17,242 -40,199 -40,190 -3,246 80,120 24,272 -117,320 -50,17 -60,17 -113,3 z"
       id="path45"
       style="fill:#ffffff;fill-opacity:1" />
    <path
       d="m 7102,5371 c -149,-52 -203,-223 -111,-351 53,-73 174,-110 256,-79 154,57 202,242 95,361 -66,73 -155,99 -240,69 z m 154,-125 c 28,-28 34,-41 34,-77 0,-135 -148,-183 -221,-72 -23,34 -24,74 -4,117 20,42 60,65 114,66 36,0 49,-6 77,-34 z"
       id="path46"
       style="fill:#ffffff;fill-opacity:1" />
    <path
       d="m 3050,5364 c -97,-42 -157,-163 -131,-261 13,-49 80,-127 132,-153 52,-27 139,-27 196,1 114,55 156,213 87,326 -55,89 -187,129 -284,87 z m 181,-123 c 32,-32 39,-46 39,-77 0,-48 -29,-98 -69,-119 -102,-52 -212,51 -171,160 19,49 58,75 113,75 44,0 53,-4 88,-39 z"
       id="path47"
       style="fill:#ffffff;fill-opacity:1" />
    <path
       d="m 3520,5373 c -42,-15 -54,-79 -20,-113 26,-26 81,-26 103,-2 50,55 -13,140 -83,115 z"
       id="path48"
       style="fill:#ffffff;fill-opacity:1" />
    <path
       d="m 6721,5354 c -25,-32 -26,-46 -6,-83 36,-70 135,-43 135,36 0,65 -89,97 -129,47 z"
       id="path49"
       style="fill:#ffffff;fill-opacity:1" />
    <path
       d="m 1871,5234 c -33,-27 -37,-40 -21,-64 8,-12 13,-13 30,-2 20,12 20,10 20,-89 0,-98 0,-100 23,-97 24,3 23,-11 19,178 -2,91 -4,100 -21,100 -11,0 -33,-12 -50,-26 z"
       id="path50"
       style="fill:#ffffff;fill-opacity:1" />
    <path
       d="m 2153,5250 c -34,-14 -43,-42 -43,-139 0,-108 14,-131 80,-131 67,0 80,22 80,138 0,53 -4,102 -8,109 -8,13 -56,33 -75,32 -7,0 -22,-4 -34,-9 z m 67,-135 c 0,-67 -3,-84 -16,-89 -32,-12 -44,13 -44,90 0,58 3,75 17,82 35,20 43,4 43,-83 z"
       id="path51"
       style="fill:#ffffff;fill-opacity:1" />
    <path
       d="m 8085,5236 c -16,-11 -20,-29 -23,-88 -2,-40 1,-92 7,-115 9,-35 17,-44 46,-53 38,-12 66,-7 90,16 19,20 22,223 3,242 -16,16 -100,15 -123,-2 z m 73,-38 c 7,-7 12,-43 12,-90 0,-75 -1,-78 -24,-78 -22,0 -24,4 -29,73 -6,90 9,127 41,95 z"
       id="path52"
       style="fill:#ffffff;fill-opacity:1" />
    <path
       d="m 8387,5230 c -30,-24 -27,-65 4,-57 18,5 19,-2 19,-94 0,-99 0,-99 25,-99 h 25 v 135 135 h -24 c -13,0 -35,-9 -49,-20 z"
       id="path53"
       style="fill:#ffffff;fill-opacity:1" />
    <path
       d="m 1352,5168 c -19,-19 -14,-55 10,-72 26,-19 148,-22 179,-6 22,12 26,59 7,78 -7,7 -44,12 -98,12 -54,0 -91,-5 -98,-12 z"
       id="path54"
       style="fill:#ffffff;fill-opacity:1" />
    <path
       d="m 2530,5160 c -15,-28 -3,-59 27,-71 36,-13 177,-11 191,3 19,19 15,66 -7,78 -11,5 -60,10 -110,10 -81,0 -91,-2 -101,-20 z"
       id="path55"
       style="fill:#ffffff;fill-opacity:1" />
    <path
       d="m 7552,5168 c -17,-17 -15,-53 4,-72 25,-25 184,-22 215,3 23,19 23,21 9,48 -15,27 -18,28 -116,31 -69,2 -103,-1 -112,-10 z"
       id="path56"
       style="fill:#ffffff;fill-opacity:1" />
    <path
       d="m 8742,5168 c -15,-15 -15,-43 -2,-69 9,-16 22,-19 95,-19 72,0 88,3 105,20 11,11 20,25 20,30 0,6 -9,19 -20,30 -17,17 -33,20 -103,20 -51,0 -88,-5 -95,-12 z"
       id="path57"
       style="fill:#ffffff;fill-opacity:1" />
    <path
       d="m 5940,5119 c -31,-13 -40,-26 -40,-66 0,-70 87,-101 129,-47 27,34 26,57 -1,88 -28,30 -55,38 -88,25 z"
       id="path58"
       style="fill:#ffffff;fill-opacity:1" />
    <path
       d="m 4297,5102 c -26,-29 -22,-77 9,-101 47,-37 98,-23 117,32 7,20 -9,68 -26,79 -23,15 -83,8 -100,-10 z"
       id="path59"
       style="fill:#ffffff;fill-opacity:1" />
    <path
       d="m 3512,5063 c -12,-10 -24,-30 -28,-45 -5,-22 0,-34 25,-59 26,-25 37,-30 59,-24 40,9 54,28 54,71 0,64 -63,96 -110,57 z"
       id="path60"
       style="fill:#ffffff;fill-opacity:1" />
    <path
       d="m 6726,5059 c -42,-33 -32,-89 21,-117 32,-18 51,-15 78,13 34,33 33,77 -1,104 -15,12 -37,21 -49,21 -12,0 -34,-9 -49,-21 z"
       id="path61"
       style="fill:#ffffff;fill-opacity:1" />
    <path
       d="m 5628,4755 c -59,-47 -108,-94 -112,-107 -3,-13 -6,-44 -6,-70 0,-44 -3,-49 -62,-101 -71,-62 -236,-187 -272,-207 -22,-11 -31,-7 -113,48 -48,34 -126,96 -173,138 -70,64 -84,82 -82,104 2,14 -1,38 -7,52 -10,26 -190,178 -210,178 -7,0 -11,-51 -11,-149 v -149 l 40,-59 c 63,-95 259,-271 390,-350 117,-71 143,-84 161,-78 30,10 215,135 299,202 91,73 178,159 234,232 l 41,54 3,174 c 2,98 0,173 -5,173 -5,0 -57,-38 -115,-85 z"
       id="path62"
       style="fill:#ffffff;fill-opacity:1" />
    <path
       d="m 2024,4816 c -37,-16 -69,-55 -84,-102 -23,-70 22,-159 96,-190 66,-28 123,-14 177,43 73,78 45,198 -57,244 -48,22 -89,23 -132,5 z"
       id="path63"
       style="fill:#ffffff;fill-opacity:1" />
    <path
       d="m 5930,4818 c -31,-11 -40,-25 -40,-64 0,-64 75,-96 118,-51 27,29 28,57 2,89 -23,31 -47,38 -80,26 z"
       id="path64"
       style="fill:#ffffff;fill-opacity:1" />
    <path
       d="m 8175,4819 c -67,-21 -105,-74 -105,-147 0,-71 26,-113 86,-143 84,-40 178,-7 215,75 22,49 23,76 5,120 -19,47 -62,83 -112,95 -49,12 -48,12 -89,0 z"
       id="path65"
       style="fill:#ffffff;fill-opacity:1" />
    <path
       d="m 1285,4738 c 40,-504 183,-977 428,-1418 38,-69 75,-131 82,-139 11,-12 25,-7 91,32 43,26 82,48 87,50 5,1 -16,47 -47,101 -235,406 -393,893 -431,1321 -3,39 -8,85 -11,103 l -5,32 h -100 -101 z"
       id="path66"
       style="fill:#ffffff;fill-opacity:1" />
    <path
       d="m 2604,4743 c 16,-178 91,-445 181,-644 160,-352 360,-624 644,-873 346,-304 722,-500 1151,-600 122,-29 282,-51 305,-43 12,5 15,24 15,97 0,64 -4,92 -12,94 -7,2 -74,15 -148,29 -399,76 -753,239 -1070,493 -116,92 -328,309 -409,419 -228,305 -385,660 -439,990 l -18,110 -103,3 -103,3 z"
       id="path67"
       style="fill:#ffffff;fill-opacity:1" />
    <path
       d="m 4320,4800 c -11,-11 -20,-33 -20,-50 0,-66 81,-97 123,-48 55,65 -42,159 -103,98 z"
       id="path68"
       style="fill:#ffffff;fill-opacity:1" />
    <path
       d="m 7516,4808 c -2,-7 -14,-67 -26,-133 -72,-389 -290,-815 -571,-1112 -216,-228 -486,-431 -746,-559 -196,-96 -376,-153 -713,-223 l -35,-7 v -91 c 0,-50 3,-95 7,-99 10,-9 167,13 297,42 724,163 1400,688 1734,1346 73,143 135,296 172,423 35,123 75,323 75,379 v 46 h -95 c -68,0 -97,-4 -99,-12 z"
       id="path69"
       style="fill:#ffffff;fill-opacity:1" />
    <path
       d="m 8820,4778 c 0,-138 -78,-522 -157,-778 -155,-503 -471,-1019 -861,-1408 l -103,-102 63,-70 c 35,-38 68,-70 73,-70 12,0 149,138 266,270 460,516 740,1084 864,1757 27,146 55,355 55,410 v 33 h -100 -100 z"
       id="path70"
       style="fill:#ffffff;fill-opacity:1" />
    <path
       d="m 3145,4761 c -17,-11 -43,-30 -60,-44 -27,-23 -28,-27 -17,-52 11,-23 17,-27 42,-21 l 30,6 v -188 c 0,-103 3,-197 6,-210 4,-13 17,-25 32,-29 48,-12 52,7 52,276 0,135 -4,251 -8,257 -14,22 -47,24 -77,5 z"
       id="path71"
       style="fill:#ffffff;fill-opacity:1" />
    <path
       d="m 6770,4772 c -9,-4 -35,-20 -58,-37 -32,-23 -42,-36 -40,-54 4,-33 32,-50 58,-34 10,7 21,9 23,5 2,-4 5,-81 6,-172 2,-166 7,-190 40,-190 38,0 41,17 41,247 0,210 -1,223 -19,233 -22,11 -29,12 -51,2 z"
       id="path72"
       style="fill:#ffffff;fill-opacity:1" />
    <path
       d="m 7135,4768 c -11,-6 -24,-16 -30,-22 -5,-6 -22,-19 -37,-29 -31,-19 -35,-43 -14,-72 12,-17 18,-18 40,-7 l 26,12 v -193 c 0,-191 7,-234 37,-244 6,-2 21,5 33,17 20,20 20,30 20,270 -1,209 -4,252 -16,265 -18,18 -32,18 -59,3 z"
       id="path73"
       style="fill:#ffffff;fill-opacity:1" />
    <path
       d="m 3486,4736 c -27,-20 -51,-37 -53,-39 -2,-3 2,-16 8,-31 13,-28 46,-35 67,-14 9,9 12,-26 12,-159 0,-143 3,-174 16,-187 8,-9 22,-16 29,-16 7,0 21,7 29,16 13,13 16,42 15,172 -1,86 -4,186 -8,222 -6,63 -7,65 -36,68 -21,2 -44,-8 -79,-32 z"
       id="path74"
       style="fill:#ffffff;fill-opacity:1" />
    <path
       d="m 2055,4347 c -3,-7 -4,-55 -3,-107 2,-76 6,-95 21,-104 12,-8 22,-8 35,0 14,9 17,27 17,115 v 104 l -33,3 c -20,2 -34,-2 -37,-11 z"
       id="path75"
       style="fill:#ffffff;fill-opacity:1" />
    <path
       d="m 8197,4353 c -4,-3 -7,-50 -7,-103 0,-102 7,-120 46,-120 28,0 44,43 44,121 0,81 -12,109 -48,109 -16,0 -32,-3 -35,-7 z"
       id="path76"
       style="fill:#ffffff;fill-opacity:1" />
    <path
       d="m 3870,4300 c -33,-33 -19,-98 24,-117 26,-12 77,1 93,24 49,66 -58,152 -117,93 z"
       id="path77"
       style="fill:#ffffff;fill-opacity:1" />
    <path
       d="m 6330,4300 c -26,-26 -25,-60 1,-94 27,-34 71,-35 104,-1 48,47 19,115 -50,115 -22,0 -43,-8 -55,-20 z"
       id="path78"
       style="fill:#ffffff;fill-opacity:1" />
    <path
       d="m 3510,4161 c -82,-27 -129,-72 -155,-151 -34,-103 13,-211 115,-263 47,-25 64,-28 115,-24 136,10 215,91 215,220 0,56 -4,71 -32,113 -43,64 -109,104 -179,109 -30,3 -65,1 -79,-4 z m 103,-100 c 80,-31 104,-130 46,-195 -77,-88 -199,-36 -199,84 0,53 20,83 70,104 42,18 51,19 83,7 z"
       id="path79"
       style="fill:#ffffff;fill-opacity:1" />
    <path
       d="m 6678,4156 c -81,-29 -126,-80 -150,-168 -34,-130 76,-268 213,-268 135,1 233,95 234,225 0,101 -67,186 -170,214 -52,14 -81,13 -127,-3 z m 147,-118 c 60,-47 64,-122 8,-180 -67,-70 -187,-29 -200,69 -6,45 14,93 49,117 34,24 109,21 143,-6 z"
       id="path80"
       style="fill:#ffffff;fill-opacity:1" />
    <path
       d="m 4044,4045 c -23,-36 -11,-93 22,-105 41,-16 69,-12 92,13 28,29 28,57 1,91 -29,36 -91,37 -115,1 z"
       id="path81"
       style="fill:#ffffff;fill-opacity:1" />
    <path
       d="m 6121,4057 c -6,-8 -14,-28 -17,-45 -5,-25 -1,-36 19,-56 63,-63 156,-1 116,77 -7,12 -17,25 -23,29 -19,13 -83,9 -95,-5 z"
       id="path82"
       style="fill:#ffffff;fill-opacity:1" />
    <path
       d="m 2084,3950 c -32,-13 -82,-77 -89,-114 -24,-124 101,-222 218,-172 56,24 80,59 85,124 3,48 0,63 -20,92 -47,69 -126,98 -194,70 z"
       id="path83"
       style="fill:#ffffff;fill-opacity:1" />
    <path
       d="m 8083,3940 c -111,-67 -81,-256 46,-290 56,-15 98,-2 146,44 53,51 65,101 39,166 -34,85 -154,127 -231,80 z"
       id="path84"
       style="fill:#ffffff;fill-opacity:1" />
    <path
       d="m 4085,3732 c -27,-21 -51,-46 -53,-55 -6,-29 18,-49 50,-43 l 28,6 v -188 c 0,-200 7,-234 48,-240 38,-6 42,29 36,290 -5,206 -8,245 -22,256 -24,18 -32,16 -87,-26 z"
       id="path85"
       style="fill:#ffffff;fill-opacity:1" />
    <path
       d="m 6129,3742 c -63,-41 -79,-62 -68,-91 8,-19 15,-23 44,-19 l 35,4 1,-86 c 1,-47 2,-138 3,-202 1,-131 8,-148 53,-132 l 28,9 3,253 c 2,241 1,253 -18,272 -26,26 -28,25 -81,-8 z"
       id="path86"
       style="fill:#ffffff;fill-opacity:1" />
    <path
       d="m 3762,3607 c -28,-29 -28,-57 -1,-91 35,-44 117,-29 120,22 3,38 -3,58 -23,75 -28,24 -70,21 -96,-6 z"
       id="path87"
       style="fill:#ffffff;fill-opacity:1" />
    <path
       d="m 6431,3604 c -12,-15 -21,-34 -21,-44 0,-34 39,-70 75,-70 24,0 39,7 54,26 27,35 26,59 -4,89 -33,34 -77,33 -104,-1 z"
       id="path88"
       style="fill:#ffffff;fill-opacity:1" />
    <path
       d="m 4535,3511 c -77,-19 -145,-79 -170,-150 -19,-55 -19,-86 0,-142 35,-102 118,-163 221,-163 176,1 283,164 210,319 -46,99 -163,160 -261,136 z m 100,-115 c 72,-30 98,-127 50,-185 -48,-57 -124,-63 -177,-14 -60,57 -61,130 -2,182 39,35 75,39 129,17 z"
       id="path89"
       style="fill:#ffffff;fill-opacity:1" />
    <path
       d="m 5639,3505 c -66,-21 -133,-95 -148,-164 -14,-67 -14,-71 5,-127 22,-64 51,-101 103,-132 37,-21 57,-26 112,-26 89,1 160,39 204,109 26,42 30,58 30,119 -1,79 -15,114 -66,164 -63,61 -156,84 -240,57 z m 136,-109 c 66,-28 87,-128 39,-185 -14,-17 -42,-36 -63,-42 -32,-10 -45,-8 -83,9 -69,30 -95,98 -63,166 29,60 98,82 170,52 z"
       id="path90"
       style="fill:#ffffff;fill-opacity:1" />
    <path
       d="m 2315,3488 c -26,-15 -35,-28 -35,-54 0,-35 33,-67 68,-67 68,0 97,72 46,112 -30,24 -50,26 -79,9 z"
       id="path91"
       style="fill:#ffffff;fill-opacity:1" />
    <path
       d="m 7912,3483 c -7,-3 -17,-16 -23,-30 -17,-45 23,-92 79,-93 22,0 52,39 52,68 0,49 -55,76 -108,55 z"
       id="path92"
       style="fill:#ffffff;fill-opacity:1" />
    <path
       d="m 5084,3356 c -59,-19 -98,-52 -130,-110 -60,-108 -29,-237 72,-304 118,-79 272,-35 338,95 41,81 6,221 -69,279 -67,51 -134,64 -211,40 z m 134,-116 c 73,-45 76,-138 7,-199 -61,-54 -141,-36 -180,39 -30,58 -10,125 48,160 41,25 83,25 125,0 z"
       id="path93"
       style="fill:#ffffff;fill-opacity:1" />
    <path
       d="m 7286,3207 -48,-43 11,-109 c 7,-61 14,-120 17,-132 6,-30 -7,-30 -138,2 -57,14 -116,25 -131,25 -30,0 -138,-77 -133,-95 1,-5 104,-32 228,-61 l 226,-51 76,-61 c 43,-34 81,-62 86,-62 9,0 94,68 98,80 2,4 -39,47 -91,95 l -94,88 -7,86 c -12,157 -30,281 -40,281 -6,0 -33,-20 -60,-43 z"
       id="path94"
       style="fill:#ffffff;fill-opacity:1" />
    <path
       d="m 2471,3213 c -35,-43 -3,-103 54,-103 40,0 65,26 65,68 0,61 -81,85 -119,35 z"
       id="path95"
       style="fill:#ffffff;fill-opacity:1" />
    <path
       d="m 7735,3226 c -13,-9 -19,-26 -19,-51 0,-25 6,-42 19,-51 27,-20 79,-17 98,4 22,25 21,75 -1,95 -23,21 -71,22 -97,3 z"
       id="path96"
       style="fill:#ffffff;fill-opacity:1" />
    <path
       d="m 2987,3166 c -76,-28 -117,-86 -117,-163 0,-55 12,-78 93,-177 61,-74 66,-86 41,-110 -19,-20 -56,-20 -93,-1 -32,16 -84,89 -101,141 -7,19 -15,34 -19,34 -33,0 -121,-25 -121,-35 0,-36 77,-160 131,-209 85,-79 169,-103 247,-71 73,31 112,86 112,158 0,47 -25,91 -105,185 -47,56 -56,90 -29,116 21,22 33,20 85,-12 27,-18 55,-49 74,-81 l 30,-52 50,7 c 90,12 90,12 58,72 -83,155 -226,239 -336,198 z"
       id="path97"
       style="fill:#ffffff;fill-opacity:1" />
    <path
       d="m 2005,3043 c -94,-54 -94,-53 -49,-115 230,-318 568,-660 885,-895 150,-111 432,-278 616,-364 154,-72 423,-182 430,-176 9,10 53,179 48,187 -3,4 -38,20 -78,35 -319,119 -648,301 -942,520 -259,193 -489,420 -718,708 -60,75 -114,137 -120,136 -7,0 -39,-16 -72,-36 z"
       id="path98"
       style="fill:#ffffff;fill-opacity:1" />
    <path
       d="m 3396,2648 c -64,-106 -133,-219 -153,-252 l -37,-58 23,-19 c 55,-45 370,-229 391,-229 16,0 98,76 89,83 -2,2 -31,19 -64,37 -88,49 -255,151 -255,156 0,16 47,84 58,84 7,0 58,-27 113,-60 55,-33 103,-60 108,-60 10,0 61,75 61,89 0,6 -10,16 -22,22 -18,10 -180,113 -197,126 -6,4 43,93 52,93 5,0 36,-16 70,-37 34,-20 99,-56 143,-80 l 81,-43 36,46 c 20,26 35,50 32,54 -2,4 -55,35 -117,70 -62,35 -150,87 -196,116 -45,30 -87,54 -92,54 -5,0 -61,-87 -124,-192 z"
       id="path99"
       style="fill:#ffffff;fill-opacity:1" />
    <path
       d="m 6715,2769 c -33,-23 -123,-73 -200,-111 -77,-39 -142,-72 -144,-74 -6,-6 19,-49 48,-84 l 26,-31 70,36 c 39,19 75,35 81,35 6,0 61,-74 123,-164 62,-90 123,-173 134,-184 22,-19 22,-19 75,15 l 53,34 -19,27 c -10,15 -67,96 -126,180 -59,84 -106,158 -103,166 3,7 32,30 66,52 33,21 61,43 61,48 0,11 -69,96 -78,96 -4,0 -34,-18 -67,-41 z"
       id="path100"
       style="fill:#ffffff;fill-opacity:1" />
    <path
       d="m 5108,2703 c -51,-58 -13,-133 67,-133 26,0 65,42 65,71 0,9 -12,31 -26,48 -30,36 -81,42 -106,14 z"
       id="path101"
       style="fill:#ffffff;fill-opacity:1" />
    <path
       d="m 6188,2517 c -32,-12 -58,-27 -58,-33 0,-10 126,-325 188,-469 17,-38 34,-71 39,-72 4,-2 33,9 65,25 l 56,27 -42,95 c -24,53 -74,175 -111,273 -38,97 -71,177 -74,176 -4,0 -32,-10 -63,-22 z"
       id="path102"
       style="fill:#ffffff;fill-opacity:1" />
    <path
       d="m 4123,2451 c -59,-27 -130,-96 -161,-156 -37,-69 -38,-188 -4,-255 33,-63 94,-123 160,-156 47,-24 68,-28 136,-29 71,0 90,4 149,32 37,18 67,36 67,40 0,5 -22,30 -48,56 l -49,48 -48,-25 c -58,-32 -95,-33 -153,-5 -105,51 -132,188 -55,280 36,42 74,59 133,59 60,0 111,-24 159,-73 l 34,-36 56,27 c 31,15 58,28 60,29 7,4 -26,47 -64,84 -65,64 -136,92 -240,96 -74,3 -98,0 -132,-16 z"
       id="path103"
       style="fill:#ffffff;fill-opacity:1" />
    <path
       d="m 5765,2394 c -11,-3 -69,-14 -130,-25 -60,-11 -120,-23 -132,-25 -16,-3 -23,-11 -23,-28 0,-30 97,-506 110,-540 8,-23 12,-24 67,-19 32,3 61,8 65,12 6,5 -8,82 -26,137 -5,18 0,22 41,32 120,28 107,31 188,-47 40,-39 77,-71 82,-71 16,0 107,32 121,43 9,7 -7,28 -67,84 l -80,74 31,49 c 69,111 39,228 -76,294 -40,24 -130,39 -171,30 z m 95,-139 c 89,-46 56,-136 -63,-169 -95,-27 -124,-29 -131,-11 -16,42 -36,149 -29,156 11,11 121,37 161,38 18,1 46,-6 62,-14 z"
       id="path104"
       style="fill:#ffffff;fill-opacity:1" />
    <path
       d="M 7429,2272 C 7248,2125 6969,1950 6754,1849 6271,1621 5774,1497 5283,1483 l -191,-6 4,-89 c 2,-50 7,-95 11,-101 4,-7 66,-8 192,-3 479,18 938,119 1386,308 333,139 681,353 930,571 l 39,34 -58,72 c -32,39 -62,73 -65,76 -4,2 -50,-31 -102,-73 z"
       id="path105"
       style="fill:#ffffff;fill-opacity:1" />
    <path
       d="m 4725,2318 c -3,-13 -7,-102 -8,-198 -2,-146 1,-183 16,-226 21,-62 73,-114 147,-148 142,-66 328,2 380,140 18,48 20,78 20,244 v 190 h -64 -65 l -3,-184 c -3,-169 -5,-187 -24,-213 -74,-99 -202,-95 -254,8 -18,34 -20,59 -20,217 0,202 5,192 -82,192 -31,0 -39,-4 -43,-22 z"
       id="path106"
       style="fill:#ffffff;fill-opacity:1" />
    <path
       d="m 4119,1563 c -25,-121 -27,-133 -20,-137 9,-6 247,-61 346,-80 85,-16 279,-41 382,-49 l 61,-5 7,88 c 4,49 4,93 1,98 -3,5 -38,12 -78,16 -141,13 -404,58 -535,92 -73,19 -137,34 -142,34 -5,0 -15,-26 -22,-57 z"
       id="path107"
       style="fill:#ffffff;fill-opacity:1" />
  </g>
</svg>
